<svg xmlns:xlink="http://www.w3.org/1999/xlink" xmlns="http://www.w3.org/2000/svg" viewBox="0 0 28 28" class="aspect-1 h-[12%] w-[12%] min-w-[24px] -translate-x-[60%] -translate-y-[35%] rounded-full border border-gray-100 bg-white/75 p-[1%] shadow" width="28"  height="28" ><path d="M14 .7a13.3 13.3 0 1 0 0 26.6A13.3 13.3 0 0 0 14 .7ZM9.4 16c.4.3.4 1 0 1.4a1 1 0 0 1-.7.3 1 1 0 0 1-.7-.3l-2.7-2.7a1 1 0 0 1 0-1.4L8 10.6a1 1 0 0 1 1.4 0c.4.4.4 1 0 1.4l-2 2 2 2Zm6.9-4.7-2.7 6.2a1 1 0 0 1-1.3.5 1 1 0 0 1-.5-1.3l2.6-6.2a1 1 0 0 1 1.3-.5c.5.2.8.8.6 1.3Zm6.4 3.4L20 17.4a1 1 0 0 1-.7.3 1 1 0 0 1-.7-.3 1 1 0 0 1 0-1.4l2-2-2-2a1 1 0 0 1 0-1.4 1 1 0 0 1 1.4 0l2.7 2.7c.4.4.4 1 0 1.4Z"></path></svg>