<svg xmlns:xlink="http://www.w3.org/1999/xlink" xmlns="http://www.w3.org/2000/svg" class="transition-transform hover:scale-110" fill="none" viewBox="0 0 400 400" width="400"  height="400" ><path fill="#649AD2" d="M378 118c0-7-2-13-4-18-3-5-8-9-13-13L218 5c-12-7-25-7-37 1L39 87c-11 7-17 17-17 31v164c0 7 1 13 4 18s7 9 13 13l142 81c12 8 25 8 37 1l143-82c6-4 10-8 13-13s4-11 4-18V118Z"></path><path fill="#004482" d="M200 199 26 300c3 5 7 9 13 13l142 81c12 8 25 8 37 1l143-82c6-4 10-8 13-13L200 199Z"></path><path fill="#1A4674" d="M149 229a59 59 0 0 0 102 0l-51-30-51 30Z"></path><path fill="#01589C" d="M378 118c0-7-2-13-4-18l-174 99 174 101c3-5 4-11 4-18V118Z"></path><path fill="#FFFFFF" d="M368 207h-13v13h-14v-13h-13v-14h13v-13h14v13h13v14ZM200 82c43 0 81 23 102 58v1l-51 29a59 59 0 1 0 0 59l52 30A118 118 0 1 1 200 82Zm105 98v13h14v14h-14v13h-13v-13h-14v-14h14v-13h13Z"></path></svg>