<svg xmlns:xlink="http://www.w3.org/1999/xlink" xmlns="http://www.w3.org/2000/svg" id="HTML-5-logo" class="absolute right-[4.5%] top-[64%] aspect-1 w-[8%]" fill="none" viewBox="0 0 133 141" width="133"  height="141" ><defs><linearGradient id="AccentSvgGradient"><stop offset="10%" stop-color="#fde047"></stop><stop offset="90%" stop-color="#bef264"></stop></linearGradient></defs><path fill="#000" d="M42.4 30l.2 46.3c0 .7.5 1.4 1.1 1.6l18.5 7.4h1l19.4-4.5c.6-.2 1.1-.8 1.3-1.4l7-45.8c0-1-.7-1.8-1.6-2l-45-3.2c-1 0-1.9.7-1.9 1.7z"></path><path fill="url(&quot;#AccentSvgGradient&quot;)" d="M80.4 47.5L57 45.8l.2 6.5L79.4 54l-2.8 18.4-13.3 3.2-12.7-5v-9.8l6.8.5L57 66l7 2.5 7.2-1.4 1.1-7.6L50.5 58V39.3l30.8 2.2-.9 6z"></path></svg>