<svg xmlns:xlink="http://www.w3.org/1999/xlink" xmlns="http://www.w3.org/2000/svg" fill="none" viewBox="0 0 50 51" class="absolute right-[30%] top-[24%] aspect-1 w-[4%] rotate-6 rounded-md bg-black p-[0.4%] sm:right-[18.5%] sm:top-[46%] sm:w-[3%] sm:rotate-0 lg:rounded-lg" width="50"  height="51" ><defs><linearGradient id="AccentSvgGradient"><stop offset="10%" stop-color="#fde047"></stop><stop offset="90%" stop-color="#bef264"></stop></linearGradient></defs><path fill="url(&quot;#AccentSvgGradient&quot;)" d="M23.4 0h-.8a25 25 0 0 0-18 10.4 24.8 24.8 0 0 0-4.4 11C0 22.7 0 23 0 25a25.1 25.1 0 0 0 36.9 22s-2-2.5-4.1-5.5l-4-5.4-5-7.4-5-7.4a399.9 399.9 0 0 0-.2 14.8c-.1.2-.2.3-.5.4l-1 .1h-.8l-.3-.1a1 1 0 0 1-.3-.4v-20c.2 0 .3-.2.5-.3h1c1 0 1.2 0 1.5.2a924.8 924.8 0 0 1 15.9 24l4 6h.2c1.7-1.2 3.6-2.9 5-4.6a24.9 24.9 0 0 0 6-12.8c.2-1.3.2-1.7.2-3.6 0-1.9 0-2.3-.2-3.6A25.1 25.1 0 0 0 23.4 0zm10.2 15.1a1 1 0 0 1 .5.6v17.8L32.6 31 31 28.7V15.8a1 1 0 0 1 .5-.7h2.1z"></path></svg>