<svg xmlns:xlink="http://www.w3.org/1999/xlink" xmlns="http://www.w3.org/2000/svg" fill="none" viewBox="0 0 64 64" class="absolute bottom-[40%] left-[20%] hidden aspect-1 w-[3%] rounded-md bg-black sm:block lg:rounded-lg" width="64"  height="64" ><defs><linearGradient id="AccentSvgGradient"><stop offset="10%" stop-color="#fde047"></stop><stop offset="90%" stop-color="#bef264"></stop></linearGradient><linearGradient id="AccentSvgGradient"><stop offset="10%" stop-color="#fde047"></stop><stop offset="90%" stop-color="#bef264"></stop></linearGradient></defs><rect width="64" height="64" fill="black" rx="15"></rect><path fill="url(&quot;#AccentSvgGradient&quot;)" d="M32 54c-.6 0-1.2-.2-1.7-.5L25 50.4c-.8-.5-.4-.6-.1-.7l2.4-1.1a.4.4 0 01.4 0l4.2 2.4a.5.5 0 00.5 0l16-9.3a.5.5 0 00.3-.4V22.7a.5.5 0 00-.2-.5L32.2 13a.5.5 0 00-.4 0l-16.2 9.3a.5.5 0 00-.2.5v18.6a.5.5 0 00.2.4l4.5 2.6c2.4 1.2 3.8-.2 3.8-1.7V24.3a.5.5 0 01.5-.5h2a.5.5 0 01.5.5v18.3c0 3.2-1.7 5-4.8 5-1.3.1-2.6-.2-3.7-1l-4.2-2.4a3.4 3.4 0 01-1.7-2.9V22.7a3.4 3.4 0 011.7-3l16.1-9.3a3.5 3.5 0 013.4 0l16.1 9.3a3.4 3.4 0 011.7 3v18.6a3.4 3.4 0 01-1.7 3l-16.1 9.2c-.5.3-1.1.5-1.7.5z"></path><path fill="url(#AccentSvgGradient)" d="M29 35a.5.5 0 01.4-.4h2.1a.5.5 0 01.5.4c.3 2.1 1.2 3.2 5.5 3.2 3.4 0 4.8-.8 4.8-2.6 0-1-.4-1.8-5.7-2.3-4.4-.5-7.1-1.4-7.1-5 0-3.2 2.7-5.1 7.3-5.1 5.2 0 7.8 1.7 8 5.6a.5.5 0 01-.4.5h-2a.5.5 0 01-.5-.4c-.5-2.2-1.8-3-5-3-3.8 0-4.2 1.4-4.2 2.3 0 1.2.5 1.6 5.5 2.2 5 .7 7.3 1.6 7.3 5 0 3.6-3 5.6-8 5.6-7 0-8.6-3.2-8.6-6z"></path></svg>