<svg xmlns:xlink="http://www.w3.org/1999/xlink" xmlns="http://www.w3.org/2000/svg" fill="none" viewBox="0 0 400 400" class="transition-transform hover:scale-110" width="400"  height="400" ><path fill="#539E43" d="M200 400c-5 0-10-1-15-4l-49-29c-7-4-3-6-1-6l22-10h3l38 23h4l147-85 2-4V115l-2-4-147-84h-4L51 111l-2 4v170l2 4 40 23c22 11 36-2 36-15V130c0-2 1-5 4-5h19c2 0 4 2 4 5v167c0 29-16 46-43 46-9 0-15 0-34-9l-39-22c-9-6-15-16-15-27V116c0-11 6-22 15-27L185 4c9-5 22-5 31 0l147 85c9 5 15 16 15 27v169c0 11-6 21-15 27l-147 85c-5 2-10 3-16 3Zm46-116c-65 0-78-30-78-55 0-2 2-4 5-4h19c2 0 4 1 4 3 3 20 11 29 50 29 31 0 44-7 44-23 0-10-4-17-52-21-40-4-65-13-65-45 0-30 25-48 67-48 47 0 70 17 73 52l-1 3-3 2h-19c-2 0-4-2-4-4-4-20-16-27-46-27-34 0-38 12-38 21 0 11 5 14 51 20 45 6 66 14 66 46s-27 51-73 51Z"></path></svg>