<svg xmlns:xlink="http://www.w3.org/1999/xlink" xmlns="http://www.w3.org/2000/svg" class="transition-transform hover:scale-110" fill="none" viewBox="0 0 400 400" width="400"  height="400" ><path fill="url(&quot;#a&quot;)" d="M199 1c-102 0-96 44-96 44v46h97v13H65S0 97 0 199c0 103 57 99 57 99h34v-47s-2-57 55-57h96s54 1 54-52V54s9-53-97-53Zm-54 31a17 17 0 1 1 0 35 17 17 0 0 1 0-35Z"></path><path fill="url(&quot;#b&quot;)" d="M201 399c102 0 96-44 96-44v-46h-97v-13h135s65 7 65-96c0-102-57-98-57-98h-34v47s2 57-55 57h-96s-54-1-54 52v88s-9 53 97 53Zm54-31a17 17 0 1 1 0-35 17 17 0 0 1 0 35Z"></path><defs><linearGradient id="a" x1="38.4" x2="236.7" y1="36.8" y2="233" gradientUnits="userSpaceOnUse"><stop stop-color="#387EB8"></stop><stop offset="1" stop-color="#366994"></stop></linearGradient><linearGradient id="b" x1="160.1" x2="373" y1="162.8" y2="364" gradientUnits="userSpaceOnUse"><stop stop-color="#FFE052"></stop><stop offset="1" stop-color="#FFC331"></stop></linearGradient><linearGradient id="a" x1="38.4" x2="236.7" y1="36.8" y2="233" gradientUnits="userSpaceOnUse"><stop stop-color="#387EB8"></stop><stop offset="1" stop-color="#366994"></stop></linearGradient><linearGradient id="b" x1="160.1" x2="373" y1="162.8" y2="364" gradientUnits="userSpaceOnUse"><stop stop-color="#FFE052"></stop><stop offset="1" stop-color="#FFC331"></stop></linearGradient></defs></svg>