<svg xmlns:xlink="http://www.w3.org/1999/xlink" xmlns="http://www.w3.org/2000/svg" fill="none" class="absolute -top-[1%] left-[60%] aspect-1 w-[4%] rotate-6 rounded-md bg-black p-[0.4%] sm:left-[8%] sm:top-[43%] sm:-rotate-0 lg:rounded-lg" viewBox="0 0 50 50" width="50"  height="50" ><defs><linearGradient id="AccentSvgGradient"><stop offset="10%" stop-color="#fde047"></stop><stop offset="90%" stop-color="#bef264"></stop></linearGradient><linearGradient id="AccentSvgGradient"><stop offset="10%" stop-color="#fde047"></stop><stop offset="90%" stop-color="#bef264"></stop></linearGradient><linearGradient id="AccentSvgGradient"><stop offset="10%" stop-color="#fde047"></stop><stop offset="90%" stop-color="#bef264"></stop></linearGradient><linearGradient id="AccentSvgGradient"><stop offset="10%" stop-color="#fde047"></stop><stop offset="90%" stop-color="#bef264"></stop></linearGradient></defs><path fill="url(&quot;#AccentSvgGradient&quot;)" d="M25.7 29.2a4.7 4.7 0 1 0-2.2-9 4.7 4.7 0 0 0 2.2 9Z"></path><path stroke="url(&quot;#AccentSvgGradient&quot;)" d="M39 14.4V14v.5c2.7.3 5 .9 6.6 1.7 1.7.8 2.6 1.8 2.8 2.8.3 1-.1 2.5-1.3 4-1.2 1.6-3 3.3-5.6 4.8a52 52 0 0 1-14.8 5.8c-5.9 1.4-11.6 2-16 1.7-2.9-.3-5.3-1-7-1.8-1.7-.9-2.7-2-2.9-3-.2-1 .1-2.3 1.2-3.8 1-1.4 2.7-3 5-4.4a54.6 54.6 0 0 1 31.9-7.8Z" fill="none"></path><path stroke="url(&quot;#AccentSvgGradient&quot;)" d="M13.6 38.7A52 52 0 0 1 16 22.4v-.2c1.8-6 4.3-11.3 7-15 1.6-2.2 3.2-4 4.8-5 1.5-1 2.8-1.3 3.8-1 1 .3 2 1.4 2.8 3.2.8 1.8 1.3 4.2 1.4 7.2a52 52 0 0 1-2.4 15.7c-1.7 5.8-4 11-6.6 14.8l.4.2-.4-.2c-1.7 2.3-3.4 4-5 5s-3 1.4-4 1.1c-1-.3-2-1.2-2.7-2.9a21 21 0 0 1-1.4-6.6h-.5.5Z" fill="none"></path><path stroke="url(#AccentSvgGradient)" d="M18 31a51.9 51.9 0 0 1-9.4-13.5 19.6 19.6 0 0 1-2-6.6C6.7 9 7 7.7 7.8 7c.8-.7 2.2-1 4.2-.8 1.9.2 4.3 1 6.9 2.4 3.9 2 8.3 5.6 12.4 9.9 4.2 4.4 7.6 9 9.5 13a20 20 0 0 1 1.9 7c0 1.9-.3 3.3-1.1 4-.7.7-2 1-3.9.9-1.7-.2-4-1-6.4-2.2l-.2.5.2-.5c-4-2-8.8-5.7-13.1-10.3Z"></path></svg>