<svg xmlns:xlink="http://www.w3.org/1999/xlink" xmlns="http://www.w3.org/2000/svg" class="transition-transform hover:scale-110" fill="none" viewBox="0 0 400 400" width="400"  height="400" ><path fill="#000" d="m397 195-17-10v-5l14-14a6 6 0 0 0-1-9l-19-7-1-5 11-16a6 6 0 0 0-4-9l-19-3-2-5 8-17a6 6 0 0 0-6-9l-19 1-4-4 5-19a6 6 0 0 0-7-7l-19 5-4-4 1-19a6 6 0 0 0-8-6l-18 8-5-2-3-19a6 6 0 0 0-9-4l-16 11-5-1-7-19a6 6 0 0 0-9-1l-14 14h-5L205 3a6 6 0 0 0-10 0l-10 17h-5L166 6a6 6 0 0 0-9 1l-7 19-5 1-16-11a6 6 0 0 0-9 4l-3 19-5 2-18-8a6 6 0 0 0-8 6l1 19-4 4-19-5a6 6 0 0 0-7 7l5 19-4 4-19-1c-2 0-4 1-5 3s-2 4-1 6l8 17-2 5-19 3a6 6 0 0 0-4 9l11 16-1 5-19 7a6 6 0 0 0-1 9l14 14v5L3 195a6 6 0 0 0 0 10l17 10v5L6 234a6 6 0 0 0 1 9l19 7 1 5-11 16a6 6 0 0 0 4 9l19 3 2 5-8 18a6 6 0 0 0 6 8l19-1 4 4-5 19a6 6 0 0 0 7 7l19-5 4 4-1 19a6 6 0 0 0 8 6l18-8 5 2 3 19a6 6 0 0 0 9 4l16-11 5 1 7 19a6 6 0 0 0 9 1l14-14h5l10 17a6 6 0 0 0 10 0l10-17h5l14 14a6 6 0 0 0 9-1l7-19 5-1 16 11a6 6 0 0 0 9-4l3-19 5-2 18 8a6 6 0 0 0 8-6l-1-19 4-4 19 5a6 6 0 0 0 7-7l-5-19 4-4 19 1a6 6 0 0 0 6-8l-8-18 2-5 19-3a6 6 0 0 0 4-9l-11-16 1-5 19-7a6 6 0 0 0 1-9l-14-14v-5l17-10a6 6 0 0 0 0-10ZM285 334a12 12 0 1 1 5-23 12 12 0 0 1-5 23Zm-6-38c-6-1-11 2-13 8l-6 28a146 146 0 0 1-122-1l-6-27c-1-6-7-10-12-9l-25 5-13-14h120l2-2v-42l-2-2h-35v-26h38c3 0 18 0 23 20l7 31c2 7 11 21 21 21h60l2-1-14 16-25-5Zm-165 38a12 12 0 1 1-5-23 12 12 0 0 1 5 23ZM69 150a12 12 0 1 1-22 10 12 12 0 0 1 22-10Zm-14 33 25-11c6-3 8-9 6-15l-6-12h21v94H59a146 146 0 0 1-4-56Zm112-9v-28h49c3 0 18 3 18 15 0 9-12 13-21 13h-46Zm179 25v11h-15c-2 0-2 1-2 2v7c0 16-9 20-17 21-8 0-17-4-18-8-4-26-12-31-23-40 14-10 30-23 30-42 0-20-14-32-23-39-13-8-28-10-32-10H91c21-23 50-40 82-46l18 19c4 5 11 5 15 1l21-20c43 8 79 35 100 71l-14 32c-2 5 0 12 6 14l27 12v15ZM191 39a12 12 0 1 1 17 17 12 12 0 1 1-17-17Zm139 112a12 12 0 1 1 22 9 12 12 0 1 1-22-9Z"></path></svg>