<svg xmlns:xlink="http://www.w3.org/1999/xlink" xmlns="http://www.w3.org/2000/svg" class="h-8 w-8 text-primary-600 [&amp;_rect]:fill-[currentColor]" fill="none" viewBox="0 0 186 186" width="186"  height="186" ><defs><linearGradient id="LearnSvgGradient"><stop offset="5%" stop-color="#4f46e5"></stop><stop offset="95%" stop-color="#c084fc"></stop></linearGradient><linearGradient id="LearnSvgGradient"><stop offset="5%" stop-color="#4f46e5"></stop><stop offset="95%" stop-color="#c084fc"></stop></linearGradient></defs><path fill="url(&quot;#LearnSvgGradient&quot;)" d="M17.438 0A17.437 17.437 0 000 17.438v81.374a17.438 17.438 0 0017.438 17.438H69.75v11.625H11.625A11.626 11.626 0 000 139.5v34.875A11.625 11.625 0 0011.625 186h162.75A11.625 11.625 0 00186 174.375V139.5a11.625 11.625 0 00-11.625-11.625H116.25V116.25h52.312A17.439 17.439 0 00186 98.812V17.439A17.438 17.438 0 00168.562 0H17.437zm0 11.625h151.124a5.814 5.814 0 015.813 5.813v81.374a5.813 5.813 0 01-5.813 5.813H17.437a5.812 5.812 0 01-5.812-5.813V17.439a5.813 5.813 0 015.813-5.813zM139.5 145.312a5.813 5.813 0 1111.626 0 5.813 5.813 0 01-11.626 0zm23.25 0a5.813 5.813 0 1111.626 0 5.813 5.813 0 01-11.626 0zM17.437 139.5h58.126a5.812 5.812 0 110 11.625H17.437a5.812 5.812 0 110-11.625zm-5.812 26.156a2.906 2.906 0 012.906-2.906H78.47a2.906 2.906 0 110 5.812H14.53a2.906 2.906 0 01-2.906-2.906z"></path><rect width="114" height="9" x="27" y="37" rx="4.5" fill="#4F46E5"></rect><rect width="69" height="9" x="27" y="54" rx="4.5" fill="#4F46E5"></rect><rect width="114" height="9" x="27" y="71" rx="4.5"></rect></svg>