<svg xmlns:xlink="http://www.w3.org/1999/xlink" xmlns="http://www.w3.org/2000/svg" class="mb-3 h-9 w-9" fill="#84cc16" stroke-width="2" stroke="url(#GrowSvgGradient)" viewBox="0 0 64 64" width="64"  height="64" ><defs><linearGradient id="GrowSvgGradient"><stop offset="5%" stop-color="#65a30d"></stop><stop offset="95%" stop-color="#84cc16"></stop></linearGradient><linearGradient id="GrowSvgGradient"><stop offset="5%" stop-color="#65a30d"></stop><stop offset="95%" stop-color="#84cc16"></stop></linearGradient><linearGradient id="GrowSvgGradient"><stop offset="5%" stop-color="#65a30d"></stop><stop offset="95%" stop-color="#84cc16"></stop></linearGradient></defs><path d="M40 30a4 4.5 0 1 0 0 9 4 4.5 0 1 0 0-9Z" stroke="url(&quot;#GrowSvgGradient&quot;)" fill="#84CC16" stroke-width="2px"></path><path d="M52.3 16a31 31 0 0 0-13.4-5 1 1 0 0 0-1 .6s-.6 1.2-.8 2.7a39.5 39.5 0 0 0-10.4 0c-.2-1.5-.8-2.7-.8-2.7a1 1 0 0 0-1-.6c-.4 0-8.3 1-13.2 5A54.7 54.7 0 0 0 4 44.5c3.5 6 13.6 8.4 15.9 8.5.3 0 .6-.1.8-.4l3.5-4.3a39.6 39.6 0 0 0 15.4 0l3.5 4.3c.2.3.5.4.8.4 2.3 0 12.4-2.5 15.9-8.5l.1-.5c0-11.9-5.1-25.7-7.7-28zm-7.8 35-2.6-3.2c5.6-1.5 8.6-3.9 8.7-4a1 1 0 0 0-1.2-1.6S43.4 47 32 47a29.3 29.3 0 0 1-17.4-4.8 1 1 0 1 0-1.2 1.6c.1.1 3 2.5 8.7 4L19.6 51c-3-.4-10.8-2.7-13.6-7.3a55 55 0 0 1 7-26.2c3.5-2.9 9.3-4 11.3-4.4l.4 1.6a26 26 0 0 0-9.2 3.5 1 1 0 1 0 1 1.6C22 16.5 28.5 16 32 16a30.6 30.6 0 0 1 16 4 1 1 0 0 0 .5-1.8c-3-2-6.4-3-9.4-3.6 0-.6.2-1.1.3-1.5 2.1.3 8 1.5 11.6 4.4 2 1.8 7 14.9 7 26.2-2.8 4.6-10.6 7-13.5 7.3z" stroke="url(&quot;#GrowSvgGradient&quot;)" fill="#84CC16" stroke-width="2px"></path><path d="M24 30a4 4.5 0 1 0 0 9 4 4.5 0 1 0 0-9Z"></path></svg>