<svg xmlns:xlink="http://www.w3.org/1999/xlink" xmlns="http://www.w3.org/2000/svg" class="transition-transform hover:scale-110" fill="none" viewBox="0 0 400 400" width="400"  height="400" ><path fill="#5382A1" d="M147 309s-15 9 11 12c32 4 48 3 83-3l22 10c-79 34-177-1-116-19Zm-10-43s-17 12 9 15c34 3 61 4 107-5 0 0 7 6 17 10-95 28-200 2-133-20Z"></path><path fill="#E76F00" d="M218 191c19 22-5 42-5 42s49-25 27-56c-21-30-38-45 50-95 0 0-137 34-72 109Z"></path><path fill="#5382A1" d="M322 342s11 9-13 16c-45 14-188 18-228 1-14-6 13-15 21-17 9-2 14-1 14-1-16-12-102 22-44 31 160 26 291-12 250-30ZM154 220s-72 17-25 24c19 2 59 2 96-1l60-8s-11 4-18 10c-74 19-217 10-176-10 35-17 63-15 63-15Zm131 73c75-39 40-76 16-71l-9 2 7-5c48-17 84 50-16 76l2-2Z"></path><path fill="#E76F00" d="M240 0s41 42-40 106c-65 51-15 80 0 113-38-34-66-64-47-92 27-41 103-61 87-127Z"></path><path fill="#5382A1" d="M162 399c72 4 182-3 185-37 0 0-5 13-60 23-61 12-137 11-182 3 0 0 9 8 57 11Z"></path></svg>